<mxfile host="app.diagrams.net" modified="2024-03-17T23:42:05.952Z" agent="Mozilla/5.0 (Windows NT 10.0; Win64; x64) AppleWebKit/537.36 (KHTML, like Gecko) Chrome/122.0.0.0 Safari/537.36 Edg/122.0.0.0" etag="NzwcZH_MUt4-xfMoxkwT" version="24.0.7" type="github">
  <diagram name="Page-1" id="VcK6FqUuJnXCoi6rQzsN">
    <mxGraphModel dx="2249" dy="2279" grid="0" gridSize="10" guides="1" tooltips="1" connect="1" arrows="1" fold="1" page="0" pageScale="1" pageWidth="850" pageHeight="1100" background="none" math="0" shadow="0">
      <root>
        <mxCell id="0" />
        <mxCell id="1" parent="0" />
        <mxCell id="3uC8p15jOwmWcl3g0wQB-271" value="&lt;font style=&quot;font-size: 12px;&quot;&gt;distance, d (cm) from source&lt;/font&gt;" style="text;html=1;align=center;verticalAlign=middle;whiteSpace=wrap;rounded=0;fontSize=16;container=0;" parent="1" vertex="1">
          <mxGeometry x="1072.323287671233" y="-602.5269461077844" width="312.35917808219176" height="74.37125748502993" as="geometry" />
        </mxCell>
        <mxCell id="3uC8p15jOwmWcl3g0wQB-200" value="" style="endArrow=none;html=1;rounded=0;fontSize=12;startSize=8;endSize=8;curved=1;" parent="1" edge="1">
          <mxGeometry width="50" height="50" relative="1" as="geometry">
            <mxPoint x="963.2454794520547" y="-486.0119760479042" as="sourcePoint" />
            <mxPoint x="985.5568493150685" y="-486.0119760479042" as="targetPoint" />
          </mxGeometry>
        </mxCell>
        <mxCell id="3uC8p15jOwmWcl3g0wQB-201" value="" style="endArrow=none;html=1;rounded=0;fontSize=12;startSize=8;endSize=8;curved=1;" parent="1" edge="1">
          <mxGeometry width="50" height="50" relative="1" as="geometry">
            <mxPoint x="963.2454794520547" y="-476.0958083832336" as="sourcePoint" />
            <mxPoint x="995.4730136986301" y="-476.0958083832336" as="targetPoint" />
          </mxGeometry>
        </mxCell>
        <mxCell id="3uC8p15jOwmWcl3g0wQB-202" value="" style="endArrow=none;html=1;rounded=0;fontSize=12;startSize=8;endSize=8;curved=1;" parent="1" edge="1">
          <mxGeometry width="50" height="50" relative="1" as="geometry">
            <mxPoint x="1059.9280821917807" y="-481.0538922155689" as="sourcePoint" />
            <mxPoint x="1097.113698630137" y="-481.0538922155689" as="targetPoint" />
          </mxGeometry>
        </mxCell>
        <mxCell id="3uC8p15jOwmWcl3g0wQB-203" value="" style="endArrow=none;html=1;rounded=0;fontSize=12;startSize=8;endSize=8;curved=1;entryX=0;entryY=0;entryDx=0;entryDy=0;exitX=0;exitY=1;exitDx=0;exitDy=0;" parent="1" edge="1">
          <mxGeometry width="50" height="50" relative="1" as="geometry">
            <mxPoint x="901.2694520547946" y="-438.9101796407186" as="sourcePoint" />
            <mxPoint x="901.2694520547946" y="-637.2335329341317" as="targetPoint" />
          </mxGeometry>
        </mxCell>
        <mxCell id="3uC8p15jOwmWcl3g0wQB-204" value="" style="endArrow=none;html=1;rounded=0;fontSize=12;startSize=8;endSize=8;curved=1;" parent="1" edge="1">
          <mxGeometry width="50" height="50" relative="1" as="geometry">
            <mxPoint x="958.287397260274" y="-637.2335329341317" as="sourcePoint" />
            <mxPoint x="901.2694520547946" y="-637.2335329341317" as="targetPoint" />
          </mxGeometry>
        </mxCell>
        <mxCell id="3uC8p15jOwmWcl3g0wQB-205" value="" style="endArrow=none;html=1;rounded=0;fontSize=12;startSize=8;endSize=8;curved=1;entryX=0;entryY=0;entryDx=0;entryDy=0;exitX=0;exitY=1;exitDx=0;exitDy=0;" parent="1" edge="1">
          <mxGeometry width="50" height="50" relative="1" as="geometry">
            <mxPoint x="935.9760273972603" y="-399.245508982036" as="sourcePoint" />
            <mxPoint x="935.9760273972603" y="-597.5688622754491" as="targetPoint" />
          </mxGeometry>
        </mxCell>
        <mxCell id="3uC8p15jOwmWcl3g0wQB-206" value="" style="endArrow=none;html=1;rounded=0;fontSize=12;startSize=8;endSize=8;curved=1;" parent="1" edge="1">
          <mxGeometry width="50" height="50" relative="1" as="geometry">
            <mxPoint x="1134.2993150684931" y="-399.245508982036" as="sourcePoint" />
            <mxPoint x="1134.2993150684931" y="-597.5688622754491" as="targetPoint" />
          </mxGeometry>
        </mxCell>
        <mxCell id="3uC8p15jOwmWcl3g0wQB-207" value="" style="endArrow=none;html=1;rounded=0;fontSize=12;startSize=8;endSize=8;curved=1;entryX=0;entryY=1;entryDx=0;entryDy=0;exitX=1;exitY=1;exitDx=0;exitDy=0;" parent="1" edge="1">
          <mxGeometry width="50" height="50" relative="1" as="geometry">
            <mxPoint x="1134.2993150684931" y="-399.245508982036" as="sourcePoint" />
            <mxPoint x="935.9760273972603" y="-399.245508982036" as="targetPoint" />
          </mxGeometry>
        </mxCell>
        <mxCell id="3uC8p15jOwmWcl3g0wQB-208" value="" style="endArrow=none;html=1;rounded=0;fontSize=12;startSize=8;endSize=8;curved=1;exitX=1;exitY=0;exitDx=0;exitDy=0;" parent="1" edge="1">
          <mxGeometry width="50" height="50" relative="1" as="geometry">
            <mxPoint x="1134.2993150684931" y="-597.5688622754491" as="sourcePoint" />
            <mxPoint x="935.9760273972603" y="-597.5688622754491" as="targetPoint" />
          </mxGeometry>
        </mxCell>
        <mxCell id="3uC8p15jOwmWcl3g0wQB-209" value="" style="endArrow=none;html=1;rounded=0;fontSize=12;startSize=8;endSize=8;curved=1;" parent="1" edge="1">
          <mxGeometry width="50" height="50" relative="1" as="geometry">
            <mxPoint x="901.2694520547946" y="-438.9101796407186" as="sourcePoint" />
            <mxPoint x="935.9760273972603" y="-399.245508982036" as="targetPoint" />
          </mxGeometry>
        </mxCell>
        <mxCell id="3uC8p15jOwmWcl3g0wQB-210" value="" style="endArrow=none;html=1;rounded=0;fontSize=12;startSize=8;endSize=8;curved=1;" parent="1" edge="1">
          <mxGeometry width="50" height="50" relative="1" as="geometry">
            <mxPoint x="901.2694520547946" y="-637.2335329341317" as="sourcePoint" />
            <mxPoint x="935.9760273972603" y="-597.5688622754491" as="targetPoint" />
          </mxGeometry>
        </mxCell>
        <mxCell id="3uC8p15jOwmWcl3g0wQB-211" value="" style="endArrow=none;html=1;rounded=0;fontSize=12;startSize=8;endSize=8;curved=1;" parent="1" edge="1">
          <mxGeometry width="50" height="50" relative="1" as="geometry">
            <mxPoint x="1099.5927397260275" y="-637.2335329341317" as="sourcePoint" />
            <mxPoint x="1134.2993150684931" y="-597.5688622754491" as="targetPoint" />
          </mxGeometry>
        </mxCell>
        <mxCell id="3uC8p15jOwmWcl3g0wQB-212" value="" style="ellipse;whiteSpace=wrap;html=1;container=0;" parent="1" vertex="1">
          <mxGeometry x="958.287397260274" y="-634.754491017964" width="123.95205479452054" height="32.22754491017964" as="geometry" />
        </mxCell>
        <mxCell id="3uC8p15jOwmWcl3g0wQB-213" value="" style="ellipse;whiteSpace=wrap;html=1;container=0;" parent="1" vertex="1">
          <mxGeometry x="958.287397260274" y="-704.1676646706587" width="123.95205479452054" height="32.22754491017964" as="geometry" />
        </mxCell>
        <mxCell id="3uC8p15jOwmWcl3g0wQB-214" value="" style="endArrow=none;html=1;rounded=0;fontSize=12;startSize=8;endSize=8;curved=1;entryX=0;entryY=0.5;entryDx=0;entryDy=0;exitX=0;exitY=0.5;exitDx=0;exitDy=0;" parent="1" source="3uC8p15jOwmWcl3g0wQB-212" target="3uC8p15jOwmWcl3g0wQB-213" edge="1">
          <mxGeometry width="50" height="50" relative="1" as="geometry">
            <mxPoint x="926.0598630136986" y="-585.1736526946108" as="sourcePoint" />
            <mxPoint x="1050.011917808219" y="-709.125748502994" as="targetPoint" />
          </mxGeometry>
        </mxCell>
        <mxCell id="3uC8p15jOwmWcl3g0wQB-215" value="" style="endArrow=none;html=1;rounded=0;fontSize=12;startSize=8;endSize=8;curved=1;entryX=1;entryY=0.5;entryDx=0;entryDy=0;exitX=1;exitY=0.5;exitDx=0;exitDy=0;" parent="1" source="3uC8p15jOwmWcl3g0wQB-212" target="3uC8p15jOwmWcl3g0wQB-213" edge="1">
          <mxGeometry width="50" height="50" relative="1" as="geometry">
            <mxPoint x="1082.0163383561644" y="-619.8802395209581" as="sourcePoint" />
            <mxPoint x="1082.0163383561644" y="-689.2934131736527" as="targetPoint" />
          </mxGeometry>
        </mxCell>
        <mxCell id="3uC8p15jOwmWcl3g0wQB-216" value="" style="endArrow=none;html=1;rounded=0;fontSize=12;startSize=8;endSize=8;curved=1;" parent="1" edge="1">
          <mxGeometry width="50" height="50" relative="1" as="geometry">
            <mxPoint x="963.2454794520547" y="-547.9880239520958" as="sourcePoint" />
            <mxPoint x="1107.0298630136986" y="-547.9880239520958" as="targetPoint" />
          </mxGeometry>
        </mxCell>
        <mxCell id="3uC8p15jOwmWcl3g0wQB-217" value="" style="endArrow=none;html=1;rounded=0;fontSize=12;startSize=8;endSize=8;curved=1;entryX=0;entryY=0;entryDx=0;entryDy=0;" parent="1" edge="1">
          <mxGeometry width="50" height="50" relative="1" as="geometry">
            <mxPoint x="963.2454794520547" y="-399.245508982036" as="sourcePoint" />
            <mxPoint x="963.2454794520547" y="-547.9880239520958" as="targetPoint" />
          </mxGeometry>
        </mxCell>
        <mxCell id="3uC8p15jOwmWcl3g0wQB-218" value="" style="endArrow=none;html=1;rounded=0;fontSize=12;startSize=8;endSize=8;curved=1;entryX=0;entryY=0;entryDx=0;entryDy=0;" parent="1" edge="1">
          <mxGeometry width="50" height="50" relative="1" as="geometry">
            <mxPoint x="1107.0298630136986" y="-399.245508982036" as="sourcePoint" />
            <mxPoint x="1107.0298630136986" y="-547.9880239520958" as="targetPoint" />
          </mxGeometry>
        </mxCell>
        <mxCell id="3uC8p15jOwmWcl3g0wQB-219" value="" style="endArrow=none;html=1;rounded=0;fontSize=12;startSize=8;endSize=8;curved=1;exitX=1;exitY=0;exitDx=0;exitDy=0;" parent="1" edge="1">
          <mxGeometry width="50" height="50" relative="1" as="geometry">
            <mxPoint x="1099.5927397260275" y="-637.2335329341317" as="sourcePoint" />
            <mxPoint x="1082.2394520547946" y="-637.2335329341317" as="targetPoint" />
          </mxGeometry>
        </mxCell>
        <mxCell id="3uC8p15jOwmWcl3g0wQB-220" value="" style="endArrow=none;html=1;rounded=0;fontSize=12;startSize=8;endSize=8;curved=1;" parent="1" edge="1">
          <mxGeometry width="50" height="50" relative="1" as="geometry">
            <mxPoint x="1084.718493150685" y="-424.0359281437126" as="sourcePoint" />
            <mxPoint x="1107.0298630136986" y="-399.245508982036" as="targetPoint" />
          </mxGeometry>
        </mxCell>
        <mxCell id="3uC8p15jOwmWcl3g0wQB-221" value="" style="endArrow=none;html=1;rounded=0;fontSize=12;startSize=8;endSize=8;curved=1;" parent="1" edge="1">
          <mxGeometry width="50" height="50" relative="1" as="geometry">
            <mxPoint x="963.2454794520547" y="-424.0359281437126" as="sourcePoint" />
            <mxPoint x="1084.718493150685" y="-424.0359281437126" as="targetPoint" />
          </mxGeometry>
        </mxCell>
        <mxCell id="3uC8p15jOwmWcl3g0wQB-222" value="" style="endArrow=none;html=1;rounded=0;fontSize=12;startSize=8;endSize=8;curved=1;entryX=0;entryY=0;entryDx=0;entryDy=0;" parent="1" edge="1">
          <mxGeometry width="50" height="50" relative="1" as="geometry">
            <mxPoint x="1084.718493150685" y="-424.0359281437126" as="sourcePoint" />
            <mxPoint x="1084.718493150685" y="-547.9880239520958" as="targetPoint" />
          </mxGeometry>
        </mxCell>
        <mxCell id="3uC8p15jOwmWcl3g0wQB-223" value="" style="endArrow=none;html=1;rounded=0;fontSize=12;startSize=8;endSize=8;curved=1;" parent="1" edge="1">
          <mxGeometry width="50" height="50" relative="1" as="geometry">
            <mxPoint x="963.2454794520547" y="-448.8263473053892" as="sourcePoint" />
            <mxPoint x="1097.113698630137" y="-448.8263473053892" as="targetPoint" />
          </mxGeometry>
        </mxCell>
        <mxCell id="3uC8p15jOwmWcl3g0wQB-224" value="" style="endArrow=none;html=1;rounded=0;fontSize=12;startSize=8;endSize=8;curved=1;" parent="1" edge="1">
          <mxGeometry width="50" height="50" relative="1" as="geometry">
            <mxPoint x="963.2454794520547" y="-443.8682634730539" as="sourcePoint" />
            <mxPoint x="1102.0717808219179" y="-443.8682634730539" as="targetPoint" />
          </mxGeometry>
        </mxCell>
        <mxCell id="3uC8p15jOwmWcl3g0wQB-225" value="" style="endArrow=none;html=1;rounded=0;fontSize=12;startSize=8;endSize=8;curved=1;" parent="1" edge="1">
          <mxGeometry width="50" height="50" relative="1" as="geometry">
            <mxPoint x="963.2454794520547" y="-453.7844311377246" as="sourcePoint" />
            <mxPoint x="1092.1556164383562" y="-453.7844311377246" as="targetPoint" />
          </mxGeometry>
        </mxCell>
        <mxCell id="3uC8p15jOwmWcl3g0wQB-226" value="" style="endArrow=none;html=1;rounded=0;fontSize=12;startSize=8;endSize=8;curved=1;" parent="1" edge="1">
          <mxGeometry width="50" height="50" relative="1" as="geometry">
            <mxPoint x="963.2454794520547" y="-481.0538922155689" as="sourcePoint" />
            <mxPoint x="990.5149315068493" y="-481.0538922155689" as="targetPoint" />
          </mxGeometry>
        </mxCell>
        <mxCell id="3uC8p15jOwmWcl3g0wQB-227" value="" style="endArrow=none;html=1;rounded=0;fontSize=12;startSize=8;endSize=8;curved=1;" parent="1" edge="1">
          <mxGeometry width="50" height="50" relative="1" as="geometry">
            <mxPoint x="1062.4071232876713" y="-476.0958083832336" as="sourcePoint" />
            <mxPoint x="1102.0717808219179" y="-476.0958083832336" as="targetPoint" />
          </mxGeometry>
        </mxCell>
        <mxCell id="3uC8p15jOwmWcl3g0wQB-228" value="" style="endArrow=none;html=1;rounded=0;fontSize=12;startSize=8;endSize=8;curved=1;" parent="1" edge="1">
          <mxGeometry width="50" height="50" relative="1" as="geometry">
            <mxPoint x="1054.97" y="-486.0119760479042" as="sourcePoint" />
            <mxPoint x="1092.1556164383562" y="-486.0119760479042" as="targetPoint" />
          </mxGeometry>
        </mxCell>
        <mxCell id="3uC8p15jOwmWcl3g0wQB-229" value="" style="endArrow=none;html=1;rounded=0;fontSize=12;startSize=8;endSize=8;curved=1;" parent="1" edge="1">
          <mxGeometry width="50" height="50" relative="1" as="geometry">
            <mxPoint x="963.2454794520547" y="-513.2814371257485" as="sourcePoint" />
            <mxPoint x="1097.113698630137" y="-513.2814371257485" as="targetPoint" />
          </mxGeometry>
        </mxCell>
        <mxCell id="3uC8p15jOwmWcl3g0wQB-230" value="" style="endArrow=none;html=1;rounded=0;fontSize=12;startSize=8;endSize=8;curved=1;" parent="1" edge="1">
          <mxGeometry width="50" height="50" relative="1" as="geometry">
            <mxPoint x="963.2454794520547" y="-508.3233532934132" as="sourcePoint" />
            <mxPoint x="1102.0717808219179" y="-508.3233532934132" as="targetPoint" />
          </mxGeometry>
        </mxCell>
        <mxCell id="3uC8p15jOwmWcl3g0wQB-231" value="" style="endArrow=none;html=1;rounded=0;fontSize=12;startSize=8;endSize=8;curved=1;" parent="1" edge="1">
          <mxGeometry width="50" height="50" relative="1" as="geometry">
            <mxPoint x="963.2454794520547" y="-518.2395209580839" as="sourcePoint" />
            <mxPoint x="1092.1556164383562" y="-518.2395209580839" as="targetPoint" />
          </mxGeometry>
        </mxCell>
        <mxCell id="3uC8p15jOwmWcl3g0wQB-232" value="" style="endArrow=none;html=1;rounded=0;fontSize=12;startSize=8;endSize=8;curved=1;fillColor=#0050ef;strokeColor=#001DBC;" parent="1" edge="1">
          <mxGeometry width="50" height="50" relative="1" as="geometry">
            <mxPoint x="1000.4310958904109" y="-468.65868263473055" as="sourcePoint" />
            <mxPoint x="1069.8442465753424" y="-468.65868263473055" as="targetPoint" />
          </mxGeometry>
        </mxCell>
        <mxCell id="3uC8p15jOwmWcl3g0wQB-233" value="" style="endArrow=none;html=1;rounded=0;fontSize=12;startSize=8;endSize=8;curved=1;fillColor=#0050ef;strokeColor=#001DBC;" parent="1" edge="1">
          <mxGeometry width="50" height="50" relative="1" as="geometry">
            <mxPoint x="985.5568493150685" y="-486.0119760479042" as="sourcePoint" />
            <mxPoint x="1054.97" y="-486.0119760479042" as="targetPoint" />
          </mxGeometry>
        </mxCell>
        <mxCell id="3uC8p15jOwmWcl3g0wQB-234" value="" style="endArrow=none;html=1;rounded=0;fontSize=12;startSize=8;endSize=8;curved=1;fillColor=#0050ef;strokeColor=#001DBC;" parent="1" edge="1">
          <mxGeometry width="50" height="50" relative="1" as="geometry">
            <mxPoint x="1054.97" y="-486.0119760479042" as="sourcePoint" />
            <mxPoint x="1069.8442465753424" y="-468.65868263473055" as="targetPoint" />
          </mxGeometry>
        </mxCell>
        <mxCell id="3uC8p15jOwmWcl3g0wQB-235" value="" style="endArrow=none;html=1;rounded=0;fontSize=12;startSize=8;endSize=8;curved=1;fillColor=#0050ef;strokeColor=#001DBC;" parent="1" edge="1">
          <mxGeometry width="50" height="50" relative="1" as="geometry">
            <mxPoint x="985.5568493150685" y="-486.0119760479042" as="sourcePoint" />
            <mxPoint x="1000.4310958904109" y="-468.65868263473055" as="targetPoint" />
          </mxGeometry>
        </mxCell>
        <mxCell id="3uC8p15jOwmWcl3g0wQB-236" value="" style="ellipse;whiteSpace=wrap;html=1;fillStyle=solid;fillColor=#E6E6E6;strokeColor=#CCCCCC;container=0;" parent="1" vertex="1">
          <mxGeometry x="1007.8682191780822" y="-483.5329341317365" width="44.62273972602739" height="12.395209580838323" as="geometry" />
        </mxCell>
        <mxCell id="3uC8p15jOwmWcl3g0wQB-237" value="" style="endArrow=classicThin;startArrow=classicThin;html=1;rounded=0;fontSize=12;startSize=4;endSize=4;curved=1;startFill=1;endFill=1;strokeWidth=0.5;" parent="1" edge="1">
          <mxGeometry width="50" height="50" relative="1" as="geometry">
            <mxPoint x="1146.694520547945" y="-481.0538922155689" as="sourcePoint" />
            <mxPoint x="1146.694520547945" y="-597.5688622754491" as="targetPoint" />
          </mxGeometry>
        </mxCell>
        <mxCell id="3uC8p15jOwmWcl3g0wQB-238" value="" style="shape=cube;whiteSpace=wrap;html=1;boundedLbl=1;backgroundOutline=1;darkOpacity=0.05;darkOpacity2=0.1;size=3;container=0;" parent="1" vertex="1">
          <mxGeometry x="1211.1495890410959" y="-535.5928143712575" width="205.7604109589041" height="136.34730538922153" as="geometry" />
        </mxCell>
        <mxCell id="3uC8p15jOwmWcl3g0wQB-239" value="" style="rounded=1;whiteSpace=wrap;html=1;fillColor=#00CC00;container=0;" parent="1" vertex="1">
          <mxGeometry x="1228.5028767123288" y="-446.34730538922156" width="37.18561643835616" height="37.185628742514965" as="geometry" />
        </mxCell>
        <mxCell id="3uC8p15jOwmWcl3g0wQB-240" value="&lt;div style=&quot;&quot;&gt;&lt;span style=&quot;font-family: Consolas; background-color: initial;&quot;&gt;&lt;font style=&quot;font-size: 22px;&quot;&gt;&amp;nbsp; &amp;nbsp; &amp;nbsp; 000&lt;/font&gt;&lt;/span&gt;&lt;/div&gt;" style="rounded=1;whiteSpace=wrap;html=1;align=center;container=0;" parent="1" vertex="1">
          <mxGeometry x="1226.0238356164382" y="-520.7185628742516" width="131.38917808219176" height="37.185628742514965" as="geometry" />
        </mxCell>
        <mxCell id="3uC8p15jOwmWcl3g0wQB-241" value="" style="rounded=1;whiteSpace=wrap;html=1;container=0;" parent="1" vertex="1">
          <mxGeometry x="1226.0238356164382" y="-478.5748502994012" width="22.311369863013695" height="22.31137724550898" as="geometry" />
        </mxCell>
        <mxCell id="3uC8p15jOwmWcl3g0wQB-242" value="" style="rounded=1;whiteSpace=wrap;html=1;container=0;" parent="1" vertex="1">
          <mxGeometry x="1253.293287671233" y="-478.5748502994012" width="22.311369863013695" height="22.31137724550898" as="geometry" />
        </mxCell>
        <mxCell id="3uC8p15jOwmWcl3g0wQB-243" value="" style="rounded=1;whiteSpace=wrap;html=1;container=0;" parent="1" vertex="1">
          <mxGeometry x="1280.5627397260273" y="-478.5748502994012" width="22.311369863013695" height="22.31137724550898" as="geometry" />
        </mxCell>
        <mxCell id="3uC8p15jOwmWcl3g0wQB-244" value="" style="rounded=1;whiteSpace=wrap;html=1;container=0;" parent="1" vertex="1">
          <mxGeometry x="1307.8321917808219" y="-478.5748502994012" width="22.311369863013695" height="22.31137724550898" as="geometry" />
        </mxCell>
        <mxCell id="3uC8p15jOwmWcl3g0wQB-245" value="" style="rounded=1;whiteSpace=wrap;html=1;container=0;" parent="1" vertex="1">
          <mxGeometry x="1335.1016438356164" y="-478.5748502994012" width="22.311369863013695" height="22.31137724550898" as="geometry" />
        </mxCell>
        <mxCell id="3uC8p15jOwmWcl3g0wQB-246" value="" style="rounded=1;whiteSpace=wrap;html=1;fillColor=#B3B3B3;container=0;" parent="1" vertex="1">
          <mxGeometry x="1317.7483561643835" y="-446.34730538922156" width="37.18561643835616" height="37.185628742514965" as="geometry" />
        </mxCell>
        <mxCell id="3uC8p15jOwmWcl3g0wQB-247" value="" style="rounded=1;whiteSpace=wrap;html=1;fillColor=#CC0000;container=0;" parent="1" vertex="1">
          <mxGeometry x="1273.1256164383562" y="-446.34730538922156" width="37.18561643835616" height="37.185628742514965" as="geometry" />
        </mxCell>
        <mxCell id="3uC8p15jOwmWcl3g0wQB-248" value="" style="verticalLabelPosition=bottom;verticalAlign=top;html=1;shape=mxgraph.basic.tick;fillColor=#008a00;fontColor=#ffffff;strokeColor=#005700;container=0;" parent="1" vertex="1">
          <mxGeometry x="1239.7081424657533" y="-436.4311377245509" width="14.750294520547945" height="17.353293413173652" as="geometry" />
        </mxCell>
        <mxCell id="3uC8p15jOwmWcl3g0wQB-249" value="" style="verticalLabelPosition=bottom;verticalAlign=top;html=1;shape=mxgraph.basic.x;fillColor=#a20025;fontColor=#ffffff;strokeColor=#6F0000;container=0;" parent="1" vertex="1">
          <mxGeometry x="1283.0417808219177" y="-436.4311377245509" width="17.353287671232877" height="17.353293413173652" as="geometry" />
        </mxCell>
        <mxCell id="3uC8p15jOwmWcl3g0wQB-250" value="" style="verticalLabelPosition=bottom;verticalAlign=top;html=1;shape=mxgraph.basic.partConcEllipse;startAngle=0.25;endAngle=0.1;arcWidth=0.5;fillColor=#647687;fontColor=#ffffff;strokeColor=#314354;container=0;" parent="1" vertex="1">
          <mxGeometry x="1327.6645205479451" y="-436.4311377245509" width="17.353287671232877" height="17.353293413173652" as="geometry" />
        </mxCell>
        <mxCell id="3uC8p15jOwmWcl3g0wQB-251" value="" style="rounded=1;whiteSpace=wrap;html=1;container=0;" parent="1" vertex="1">
          <mxGeometry x="1389.6405479452055" y="-518.2395209580839" width="17.353287671232877" height="17.353293413173652" as="geometry" />
        </mxCell>
        <mxCell id="3uC8p15jOwmWcl3g0wQB-252" value="" style="rounded=1;whiteSpace=wrap;html=1;container=0;" parent="1" vertex="1">
          <mxGeometry x="1389.6405479452055" y="-488.4910179640719" width="17.353287671232877" height="17.353293413173652" as="geometry" />
        </mxCell>
        <mxCell id="3uC8p15jOwmWcl3g0wQB-253" value="" style="rounded=1;whiteSpace=wrap;html=1;container=0;" parent="1" vertex="1">
          <mxGeometry x="1389.6405479452055" y="-458.7425149700599" width="17.353287671232877" height="17.353293413173652" as="geometry" />
        </mxCell>
        <mxCell id="3uC8p15jOwmWcl3g0wQB-254" value="" style="rounded=1;whiteSpace=wrap;html=1;container=0;" parent="1" vertex="1">
          <mxGeometry x="1389.6405479452055" y="-428.99401197604794" width="17.353287671232877" height="17.353293413173652" as="geometry" />
        </mxCell>
        <mxCell id="3uC8p15jOwmWcl3g0wQB-255" value="&lt;font face=&quot;Consolas&quot; style=&quot;font-size: 6px;&quot;&gt;count&lt;/font&gt;" style="text;html=1;align=center;verticalAlign=middle;resizable=0;points=[];autosize=1;strokeColor=none;fillColor=none;fontSize=16;container=0;" parent="1" vertex="1">
          <mxGeometry x="1358.5387671232877" y="-529.8622754491018" width="35" height="31" as="geometry" />
        </mxCell>
        <mxCell id="3uC8p15jOwmWcl3g0wQB-256" value="&lt;font face=&quot;Consolas&quot; style=&quot;font-size: 6px;&quot;&gt;div.&lt;/font&gt;" style="text;html=1;align=center;verticalAlign=middle;resizable=0;points=[];autosize=1;strokeColor=none;fillColor=none;fontSize=16;container=0;" parent="1" vertex="1">
          <mxGeometry x="1362.017808219178" y="-499.1137724550898" width="31" height="31" as="geometry" />
        </mxCell>
        <mxCell id="3uC8p15jOwmWcl3g0wQB-257" value="&lt;font face=&quot;Consolas&quot; style=&quot;font-size: 6px;&quot;&gt;freq.&lt;/font&gt;" style="text;html=1;align=center;verticalAlign=middle;resizable=0;points=[];autosize=1;strokeColor=none;fillColor=none;fontSize=16;container=0;" parent="1" vertex="1">
          <mxGeometry x="1359.5387671232877" y="-469.8862275449102" width="35" height="31" as="geometry" />
        </mxCell>
        <mxCell id="3uC8p15jOwmWcl3g0wQB-258" value="&lt;font face=&quot;Consolas&quot; style=&quot;font-size: 6px;&quot;&gt;rep.&lt;/font&gt;" style="text;html=1;align=center;verticalAlign=middle;resizable=0;points=[];autosize=1;strokeColor=none;fillColor=none;fontSize=16;container=0;" parent="1" vertex="1">
          <mxGeometry x="1361.017808219178" y="-439.6167664670659" width="31" height="31" as="geometry" />
        </mxCell>
        <mxCell id="3uC8p15jOwmWcl3g0wQB-259" value="" style="endArrow=none;html=1;rounded=0;fontSize=12;startSize=8;endSize=8;curved=1;" parent="1" edge="1">
          <mxGeometry width="50" height="50" relative="1" as="geometry">
            <mxPoint x="1020.2634246575342" y="-724" as="sourcePoint" />
            <mxPoint x="1020.2634246575342" y="-689.2934131736527" as="targetPoint" />
          </mxGeometry>
        </mxCell>
        <mxCell id="3uC8p15jOwmWcl3g0wQB-260" value="" style="endArrow=none;html=1;rounded=0;fontSize=12;startSize=8;endSize=8;curved=1;" parent="1" edge="1">
          <mxGeometry width="50" height="50" relative="1" as="geometry">
            <mxPoint x="1315.2693150684931" y="-724" as="sourcePoint" />
            <mxPoint x="1020.2634246575342" y="-724" as="targetPoint" />
          </mxGeometry>
        </mxCell>
        <mxCell id="3uC8p15jOwmWcl3g0wQB-261" value="" style="endArrow=none;html=1;rounded=0;fontSize=12;startSize=8;endSize=8;curved=1;" parent="1" edge="1">
          <mxGeometry width="50" height="50" relative="1" as="geometry">
            <mxPoint x="1315.2693150684931" y="-535.5928143712575" as="sourcePoint" />
            <mxPoint x="1315.2693150684931" y="-724" as="targetPoint" />
          </mxGeometry>
        </mxCell>
        <mxCell id="3uC8p15jOwmWcl3g0wQB-262" value="" style="endArrow=classic;html=1;rounded=0;fontSize=12;startSize=8;endSize=4;curved=1;strokeWidth=0.5;" parent="1" edge="1">
          <mxGeometry width="50" height="50" relative="1" as="geometry">
            <mxPoint x="921.1017808219178" y="-696.7305389221557" as="sourcePoint" />
            <mxPoint x="955.8083561643836" y="-662.0239520958083" as="targetPoint" />
          </mxGeometry>
        </mxCell>
        <mxCell id="3uC8p15jOwmWcl3g0wQB-263" value="" style="endArrow=classic;html=1;rounded=0;fontSize=12;startSize=8;endSize=4;curved=1;strokeWidth=0.5;entryX=0.327;entryY=0.789;entryDx=0;entryDy=0;entryPerimeter=0;" parent="1" target="3uC8p15jOwmWcl3g0wQB-236" edge="1">
          <mxGeometry width="50" height="50" relative="1" as="geometry">
            <mxPoint x="1015.3053424657535" y="-381.8922155688623" as="sourcePoint" />
            <mxPoint x="1047.5328767123287" y="-362.05988023952096" as="targetPoint" />
          </mxGeometry>
        </mxCell>
        <mxCell id="3uC8p15jOwmWcl3g0wQB-264" value="" style="endArrow=classic;html=1;rounded=0;fontSize=12;startSize=8;endSize=4;curved=1;strokeWidth=0.5;" parent="1" edge="1">
          <mxGeometry width="50" height="50" relative="1" as="geometry">
            <mxPoint x="1362.371095890411" y="-585.1736526946108" as="sourcePoint" />
            <mxPoint x="1362.371095890411" y="-538.0718562874251" as="targetPoint" />
          </mxGeometry>
        </mxCell>
        <mxCell id="3uC8p15jOwmWcl3g0wQB-265" value="" style="endArrow=classic;html=1;rounded=0;fontSize=12;startSize=8;endSize=4;curved=1;strokeWidth=0.5;" parent="1" edge="1">
          <mxGeometry width="50" height="50" relative="1" as="geometry">
            <mxPoint x="874" y="-557.9041916167664" as="sourcePoint" />
            <mxPoint x="908.7065753424657" y="-523.1976047904192" as="targetPoint" />
          </mxGeometry>
        </mxCell>
        <mxCell id="3uC8p15jOwmWcl3g0wQB-266" value="" style="endArrow=none;html=1;rounded=0;fontSize=12;startSize=8;endSize=8;curved=1;" parent="1" edge="1">
          <mxGeometry width="50" height="50" relative="1" as="geometry">
            <mxPoint x="1007.8682191780822" y="-303.00000000000006" as="sourcePoint" />
            <mxPoint x="1186.3591780821916" y="-315.39520958083835" as="targetPoint" />
          </mxGeometry>
        </mxCell>
        <mxCell id="3uC8p15jOwmWcl3g0wQB-267" value="" style="endArrow=none;html=1;rounded=0;fontSize=12;startSize=8;endSize=8;curved=1;" parent="1" edge="1">
          <mxGeometry width="50" height="50" relative="1" as="geometry">
            <mxPoint x="1005.3891780821917" y="-325.311377245509" as="sourcePoint" />
            <mxPoint x="1186.3591780821916" y="-315.39520958083835" as="targetPoint" />
          </mxGeometry>
        </mxCell>
        <mxCell id="3uC8p15jOwmWcl3g0wQB-268" value="" style="endArrow=classic;html=1;rounded=0;fontSize=12;startSize=8;endSize=4;curved=1;strokeWidth=0.5;" parent="1" edge="1">
          <mxGeometry width="50" height="50" relative="1" as="geometry">
            <mxPoint x="1089.6765753424656" y="-347.622754491018" as="sourcePoint" />
            <mxPoint x="1054.97" y="-325.311377245509" as="targetPoint" />
          </mxGeometry>
        </mxCell>
        <mxCell id="3uC8p15jOwmWcl3g0wQB-269" value="" style="rounded=0;whiteSpace=wrap;html=1;container=0;" parent="1" vertex="1">
          <mxGeometry x="1005.3891780821917" y="-325.311377245509" width="2.4790410958904108" height="2.4790419161676644" as="geometry" />
        </mxCell>
        <mxCell id="3uC8p15jOwmWcl3g0wQB-270" value="" style="rounded=0;whiteSpace=wrap;html=1;container=0;" parent="1" vertex="1">
          <mxGeometry x="1005.3891780821917" y="-305.4790419161677" width="2.4790410958904108" height="2.4790419161676644" as="geometry" />
        </mxCell>
        <mxCell id="3uC8p15jOwmWcl3g0wQB-273" value="&lt;font style=&quot;font-size: 12px;&quot;&gt;tweezers for safe source handling&lt;/font&gt;" style="text;html=1;align=center;verticalAlign=middle;whiteSpace=wrap;rounded=0;fontSize=16;" parent="1" vertex="1">
          <mxGeometry x="1089.04" y="-364" width="194" height="30" as="geometry" />
        </mxCell>
        <mxCell id="3uC8p15jOwmWcl3g0wQB-274" value="&lt;font style=&quot;font-size: 12px;&quot;&gt;U-238 Source on blue holding tray&lt;/font&gt;" style="text;html=1;align=center;verticalAlign=middle;whiteSpace=wrap;rounded=0;fontSize=16;" parent="1" vertex="1">
          <mxGeometry x="1001" y="-399.25" width="218" height="30" as="geometry" />
        </mxCell>
        <mxCell id="3uC8p15jOwmWcl3g0wQB-275" value="&lt;font style=&quot;font-size: 12px;&quot;&gt;shielded container for source and detector&lt;/font&gt;" style="text;html=1;align=center;verticalAlign=middle;whiteSpace=wrap;rounded=0;fontSize=16;" parent="1" vertex="1">
          <mxGeometry x="738" y="-571" width="147" height="30" as="geometry" />
        </mxCell>
        <mxCell id="3uC8p15jOwmWcl3g0wQB-276" value="&lt;font style=&quot;font-size: 12px;&quot;&gt;Geiger-M&lt;span style=&quot;color: rgb(17, 17, 17); font-family: Roboto, Helvetica, sans-serif; text-align: left;&quot;&gt;ü&lt;/span&gt;ller tube connected to housing&lt;/font&gt;" style="text;html=1;align=center;verticalAlign=middle;whiteSpace=wrap;rounded=0;fontSize=16;" parent="1" vertex="1">
          <mxGeometry x="792" y="-712" width="151" height="30" as="geometry" />
        </mxCell>
        <mxCell id="3uC8p15jOwmWcl3g0wQB-277" value="&lt;font style=&quot;font-size: 12px;&quot;&gt;detector cable connected to counter&lt;/font&gt;" style="text;html=1;align=center;verticalAlign=middle;whiteSpace=wrap;rounded=0;fontSize=16;" parent="1" vertex="1">
          <mxGeometry x="1078" y="-754" width="223" height="30" as="geometry" />
        </mxCell>
        <mxCell id="3uC8p15jOwmWcl3g0wQB-278" value="&lt;font style=&quot;font-size: 12px;&quot;&gt;electric counter, with set time interval&lt;/font&gt;" style="text;html=1;align=center;verticalAlign=middle;whiteSpace=wrap;rounded=0;fontSize=16;" parent="1" vertex="1">
          <mxGeometry x="1310.31" y="-632.53" width="109" height="30" as="geometry" />
        </mxCell>
      </root>
    </mxGraphModel>
  </diagram>
</mxfile>
